<?xml version="1.0" standalone="no"?>
<!DOCTYPE svg PUBLIC "-//W3C//DTD SVG 20010904//EN"
 "http://www.w3.org/TR/2001/REC-SVG-20010904/DTD/svg10.dtd">
<svg version="1.0" xmlns="http://www.w3.org/2000/svg"
 width="1024.000000pt" height="1024.000000pt" viewBox="0 0 1024.000000 1024.000000"
 preserveAspectRatio="xMidYMid meet">
<metadata>
Created by potrace 1.14, written by Peter Selinger 2001-2017
</metadata>
<g transform="translate(0.000000,1024.000000) scale(0.100000,-0.100000)"
fill="#000000" stroke="none">
<path d="M6827 8703 c-3 -5 -8 -27 -12 -51 -4 -26 -20 -60 -40 -85 -117 -146
-155 -230 -163 -355 -6 -110 11 -193 55 -266 l36 -59 -12 -65 c-23 -126 -97
-229 -200 -282 -100 -50 -296 -80 -536 -81 -152 0 -202 5 -400 37 -49 8 -202
30 -340 50 -241 34 -258 35 -470 31 -130 -3 -259 -11 -315 -20 -249 -41 -559
-163 -820 -322 -189 -115 -351 -255 -580 -501 -28 -30 -92 -76 -165 -119 -161
-95 -421 -290 -525 -394 -212 -212 -372 -427 -525 -706 -190 -345 -249 -490
-320 -789 -105 -435 -118 -711 -55 -1111 63 -394 292 -883 553 -1180 44 -49
146 -152 226 -229 258 -245 586 -438 943 -555 253 -83 443 -111 752 -112 282
-1 498 24 781 91 370 87 600 116 733 90 85 -16 207 -68 289 -124 151 -103 250
-139 383 -139 238 0 403 164 403 398 0 226 -111 379 -388 537 -119 68 -184 90
-370 130 -118 25 -170 30 -335 35 -238 6 -360 -9 -735 -93 -373 -83 -501 -105
-665 -111 -184 -7 -311 7 -510 59 -438 112 -786 389 -1020 813 -152 274 -226
527 -237 808 -11 293 37 533 169 847 40 94 72 154 217 405 114 198 211 310
337 391 86 55 93 54 141 -24 103 -166 288 -324 502 -429 159 -78 233 -125 284
-182 l37 -41 -37 -47 c-20 -27 -60 -97 -89 -158 -162 -337 -270 -569 -296
-635 -17 -41 -38 -79 -47 -84 -9 -5 -35 -28 -57 -51 -69 -71 -82 -178 -31
-268 37 -67 210 -197 340 -256 160 -72 359 -131 442 -131 71 0 179 -19 289
-52 71 -20 104 -47 235 -191 36 -39 62 -45 106 -25 59 27 47 119 -30 235 -64
96 -63 110 12 120 37 5 42 3 74 -37 19 -23 51 -62 72 -87 42 -50 46 -86 10
-91 -16 -2 -28 7 -48 43 -15 25 -36 50 -46 56 -17 9 -19 6 -19 -32 0 -36 6
-48 44 -85 35 -35 50 -44 78 -44 47 0 88 33 88 70 0 23 4 27 20 23 11 -3 31
-2 45 1 52 13 19 89 -90 205 -90 96 -191 132 -442 160 -56 6 -99 17 -132 34
-27 15 -91 37 -142 51 -227 60 -411 114 -421 124 -15 15 -4 27 67 66 35 20 67
41 70 46 15 24 24 7 10 -20 -17 -33 -20 -66 -6 -75 5 -3 99 -26 208 -50 109
-25 232 -56 273 -70 41 -13 140 -36 220 -49 145 -25 169 -31 245 -60 22 -8 63
-15 90 -16 101 -1 184 -34 299 -119 73 -54 120 -66 149 -36 22 21 11 48 -41
106 -24 27 -42 53 -38 56 11 11 83 -28 118 -64 43 -45 78 -63 125 -63 61 0 70
11 49 58 -20 44 -108 137 -169 177 -57 39 -174 65 -317 71 -69 3 -143 12 -165
19 -22 8 -119 33 -215 55 -96 22 -224 53 -283 68 l-108 28 78 70 c43 39 105
93 138 119 33 27 94 76 135 110 41 34 109 88 150 122 122 99 330 293 330 308
0 25 24 6 60 -48 205 -310 462 -673 559 -790 l64 -79 3 -126 c1 -70 7 -149 13
-177 6 -27 15 -130 21 -228 8 -145 14 -184 30 -215 29 -55 45 -72 67 -72 46 0
77 67 94 208 7 57 16 99 20 95 4 -4 9 -62 11 -128 5 -130 18 -171 63 -201 47
-31 75 5 99 131 14 74 21 72 29 -9 6 -57 34 -100 69 -104 31 -4 73 42 88 96 5
20 15 57 22 82 l12 45 6 -45 c7 -55 23 -85 55 -106 31 -21 57 -7 89 49 54 94
72 230 41 318 -28 80 -143 179 -207 179 -35 0 -322 263 -326 298 -6 51 -42
217 -61 284 -29 101 -111 336 -138 398 -14 30 -60 156 -103 280 -91 264 -98
280 -151 366 l-40 67 33 27 c18 15 61 61 96 102 l62 75 103 16 c56 10 147 28
202 41 55 14 101 23 102 22 7 -6 -29 -159 -53 -226 -62 -176 -4 -345 249 -725
79 -120 306 -425 401 -542 28 -34 87 -108 132 -165 l81 -103 5 -80 c4 -55 15
-104 35 -157 l30 -76 -40 -87 c-45 -95 -43 -117 8 -123 40 -5 69 5 105 34 49
41 71 96 72 173 l0 66 27 -30 c14 -17 59 -59 99 -94 39 -35 72 -70 72 -79 0
-26 -46 -78 -105 -117 -31 -20 -60 -47 -64 -58 -10 -26 0 -57 22 -71 21 -13
88 8 127 40 27 23 30 24 30 7 0 -29 29 -63 54 -63 32 0 111 87 142 157 36 80
55 160 45 186 -5 12 -105 120 -223 239 l-214 217 4 41 c3 25 -2 49 -11 63 -9
13 -13 35 -10 50 8 42 -14 141 -57 252 -73 190 -121 300 -146 336 -13 19 -56
111 -94 204 -39 92 -100 226 -136 296 l-65 129 29 42 c116 171 292 556 381
831 72 222 84 296 86 512 l1 190 39 80 c55 110 132 191 199 210 100 28 273 55
396 61 140 6 170 17 208 75 14 20 36 37 53 42 56 15 151 199 135 262 -4 15
-51 72 -104 127 l-97 100 0 112 c0 96 -3 117 -24 159 -21 43 -22 50 -8 65 57
65 88 180 94 355 l6 147 -38 0 c-27 0 -82 -24 -209 -90 -95 -49 -181 -90 -191
-90 -10 0 -49 11 -87 25 -138 50 -344 56 -506 14 -72 -18 -77 -18 -86 -2 -23
43 -173 185 -220 208 -49 24 -100 33 -109 18z m227 -220 c51 -58 133 -196 147
-247 7 -24 9 -80 6 -131 -6 -112 -35 -194 -89 -249 l-40 -41 8 70 c21 181 2
300 -72 447 -48 94 -114 167 -114 125 0 -7 -18 -37 -40 -67 -140 -188 -100
-396 102 -527 38 -25 68 -49 66 -55 -2 -5 -15 -17 -30 -26 -25 -15 -29 -14
-67 3 -56 25 -162 138 -200 213 -39 76 -49 163 -31 254 15 78 44 135 109 217
28 35 59 85 68 111 l17 48 60 -51 c34 -27 78 -70 100 -94z m1134 -55 c-6 -91
-30 -180 -62 -223 -13 -18 -15 -16 -38 21 -14 21 -57 66 -97 99 -39 33 -71 63
-71 66 0 7 244 123 269 128 2 1 1 -41 -1 -91z m-403 -224 c44 -8 117 -17 163
-21 76 -5 84 -8 103 -34 42 -60 53 -101 54 -206 0 -89 3 -105 23 -132 12 -16
22 -38 22 -47 0 -9 -53 -71 -118 -137 -97 -100 -122 -133 -141 -182 -13 -33
-28 -64 -33 -70 -4 -5 -36 -10 -69 -11 -86 -4 -94 -17 -41 -64 41 -37 42 -39
22 -50 -11 -6 -40 -10 -63 -8 -47 3 -57 17 -98 131 -17 47 -27 61 -52 72 -205
88 -271 138 -318 242 -21 48 -38 68 -71 89 -24 16 -45 29 -47 31 -2 1 13 17
33 36 23 22 54 74 87 143 28 60 63 122 77 137 33 35 109 84 143 92 24 6 28 2
43 -34 9 -23 16 -47 16 -54 0 -6 -23 -24 -50 -39 -141 -78 -205 -303 -121
-427 30 -46 94 -94 117 -89 11 2 4 17 -26 56 -59 80 -83 179 -60 252 6 20 8
14 9 -26 2 -105 66 -215 149 -256 70 -34 186 -32 264 4 63 29 142 97 165 142
43 83 -42 251 -164 323 -46 27 -131 53 -175 53 -23 0 -29 6 -38 41 -6 22 -14
47 -17 56 -5 14 2 15 63 8 38 -4 105 -13 149 -21z m-195 -185 c-30 -16 -68
-43 -85 -60 -27 -27 -30 -35 -29 -93 1 -74 20 -113 77 -160 35 -28 47 -31 116
-34 76 -4 79 -3 114 28 20 17 39 40 42 51 4 11 9 18 11 16 3 -3 -1 -20 -9 -39
-26 -62 -145 -103 -222 -78 -132 44 -193 220 -114 331 22 31 93 69 129 69 20
0 14 -6 -30 -31z m73 -76 c-25 -5 -83 -66 -83 -88 0 -21 51 -76 84 -90 20 -9
37 -10 48 -4 24 13 41 74 34 123 -6 38 -5 40 9 22 29 -38 12 -146 -25 -166
-10 -6 -35 -10 -56 -10 -30 0 -44 8 -80 44 -55 54 -60 98 -16 138 31 30 48 37
82 36 22 -1 23 -1 3 -5z m51 -65 c13 -21 -2 -66 -26 -82 -38 -23 -79 59 -46
92 17 17 58 11 72 -10z m-821 -148 c5 0 24 -9 42 -20 31 -19 32 -22 23 -58 -7
-28 -5 -46 7 -74 8 -21 16 -38 18 -38 1 0 3 29 4 65 3 77 13 99 56 125 71 44
136 13 158 -75 6 -25 14 -43 17 -41 3 3 42 -30 88 -73 75 -71 184 -141 220
-141 15 0 22 -18 40 -95 7 -33 16 -70 20 -82 5 -20 3 -23 -20 -23 -24 0 -31 8
-56 63 -25 54 -35 66 -82 91 -120 65 -217 161 -219 215 0 15 -3 20 -6 13 -3
-7 -18 -19 -33 -27 l-29 -15 97 -93 c54 -51 117 -104 142 -118 48 -27 75 -59
85 -103 l6 -29 -96 5 c-133 7 -217 48 -332 163 -101 102 -145 169 -183 284
-39 115 -39 130 -4 102 15 -12 31 -21 37 -21z m-116 -134 c39 -112 118 -237
206 -326 68 -69 95 -88 185 -132 93 -46 113 -52 185 -56 81 -5 81 -5 58 -23
-30 -25 -60 -24 -170 5 -108 28 -182 70 -265 151 -105 103 -209 287 -230 408
-11 58 7 44 31 -27z m1543 -32 c17 -3 28 -10 24 -15 -8 -13 -88 -11 -102 3
-20 20 -13 30 18 24 17 -3 44 -9 60 -12z m-1629 -46 c18 -72 90 -208 150 -288
55 -72 143 -152 220 -198 47 -29 148 -61 216 -69 42 -4 53 -9 51 -22 -5 -26
-112 -27 -189 -1 -113 38 -272 163 -348 274 -73 105 -144 289 -128 330 10 25
15 19 28 -26z m-1653 -32 c31 -8 121 -24 199 -36 78 -11 167 -27 197 -35 31
-8 105 -18 166 -21 100 -6 108 -8 83 -20 -267 -121 -274 -126 -388 -248 -60
-63 -112 -113 -117 -110 -4 3 -5 -1 -3 -8 3 -8 -1 -22 -10 -33 -14 -19 -17
-17 -77 46 -35 37 -81 87 -103 111 -74 81 -178 111 -385 111 -142 0 -287 -23
-338 -55 -18 -11 -60 -56 -93 -99 -33 -43 -65 -79 -70 -79 -40 0 -268 -123
-385 -208 -28 -20 -72 -52 -98 -71 l-48 -33 -56 28 c-48 25 -72 30 -150 32
-52 2 -114 -1 -139 -7 -25 -7 -48 -9 -51 -6 -3 3 15 27 40 53 25 26 52 57 60
70 27 40 227 193 364 280 155 97 340 183 552 258 183 64 249 75 497 84 105 3
214 7 243 8 29 1 78 -5 110 -12z m1588 -152 c54 -150 265 -389 404 -458 59
-29 92 -38 155 -44 71 -6 80 -9 80 -27 0 -18 -6 -20 -70 -19 -134 1 -251 58
-371 181 -147 151 -281 415 -249 490 6 14 11 6 22 -32 8 -27 21 -68 29 -91z
m-246 57 c0 -6 -4 -12 -8 -15 -20 -12 -34 -116 -29 -207 4 -89 7 -99 53 -186
27 -50 70 -122 96 -160 26 -38 68 -116 94 -174 40 -87 48 -116 52 -179 11
-185 -84 -411 -232 -552 -49 -48 -184 -124 -205 -117 -11 4 88 178 162 283 51
72 107 178 125 236 36 111 34 286 -4 403 -19 56 -105 169 -188 244 -179 164
-440 193 -683 76 -107 -51 -215 -158 -267 -263 -60 -124 -80 -275 -51 -395 13
-57 13 -64 -10 -140 -13 -44 -36 -127 -50 -185 -42 -171 -54 -201 -73 -191 -9
4 -89 11 -177 15 -88 3 -189 11 -225 17 -36 6 -72 11 -81 10 -16 0 -59 69 -74
117 -6 20 -3 22 25 22 44 0 167 43 231 81 82 48 123 83 162 141 33 48 38 64
52 168 15 120 68 330 104 413 48 112 190 280 291 345 79 50 179 94 300 131 90
27 138 34 340 50 129 10 243 19 253 20 9 0 17 -3 17 -8z m129 -71 c31 -89 194
-360 259 -431 101 -111 219 -171 369 -192 79 -10 82 -11 66 -29 -50 -55 -303
30 -429 145 -62 57 -147 173 -194 267 -45 90 -97 227 -105 280 -9 60 6 42 34
-40z m-42 -170 c31 -95 150 -295 221 -372 87 -93 235 -178 355 -202 50 -10 62
-16 62 -32 0 -17 -7 -19 -54 -17 -65 3 -177 50 -279 117 -114 76 -106 64 -273
375 -67 126 -72 140 -75 205 -3 63 -2 67 7 36 6 -19 22 -69 36 -110z m-1642
-4 c50 -23 116 -87 145 -140 18 -35 4 -46 -63 -46 l-48 0 -26 57 c-14 32 -41
79 -60 105 -29 41 -32 48 -16 48 10 0 41 -11 68 -24z m-465 0 c0 -2 -14 -30
-30 -61 -17 -32 -33 -75 -36 -96 -5 -32 -11 -39 -29 -39 -34 0 -55 10 -55 26
0 24 46 107 72 130 34 31 78 54 78 40z m317 -32 c83 -68 103 -130 72 -229 -20
-66 -44 -94 -98 -115 -27 -11 -36 -11 -39 -2 -2 7 -7 10 -12 7 -15 -9 -107 25
-149 56 -27 19 -50 47 -63 75 -17 41 -18 51 -7 96 14 60 66 123 113 138 17 5
57 8 88 6 47 -2 65 -8 95 -32z m1392 -114 c173 -58 299 -186 335 -340 73 -307
-111 -596 -424 -670 -122 -29 -266 0 -375 75 -93 63 -191 203 -214 305 -26
110 0 302 52 389 71 120 187 211 314 246 77 21 243 19 312 -5z m-1891 -96
c-34 -18 -34 -19 -6 -21 13 -1 55 -36 104 -87 l82 -85 -48 -20 c-27 -12 -55
-21 -62 -21 -18 0 -158 141 -158 159 0 11 -12 12 -52 7 -82 -11 -89 -20 -33
-45 26 -12 77 -47 112 -78 l65 -56 -24 -18 c-39 -31 -61 -23 -135 45 -38 35
-89 74 -112 87 -40 21 -42 23 -25 36 10 7 26 13 35 13 10 0 34 9 53 21 43 25
183 77 211 78 16 0 15 -2 -7 -15z m900 -12 c24 -14 27 -24 12 -52 -7 -13 -17
-16 -32 -13 -22 6 -22 5 -6 -13 17 -19 16 -24 -3 -104 -11 -47 -23 -88 -27
-92 -7 -7 -51 5 -209 60 l-82 28 91 92 c50 51 99 92 110 92 10 0 18 6 18 13 0
16 93 8 128 -11z m-602 -137 c21 -3 53 -9 69 -12 l30 -6 -25 -9 c-56 -21 -156
18 -217 85 -25 28 -29 36 -17 41 8 3 13 10 9 15 -3 6 21 -17 53 -49 45 -45 68
-60 98 -65z m-604 -42 c60 -36 175 -139 166 -149 -3 -2 -23 -5 -46 -6 -36 -1
-48 5 -97 48 -31 27 -81 66 -111 86 l-56 37 34 10 c18 5 36 10 40 10 4 1 35
-16 70 -36z m-490 -80 c82 -45 131 -126 131 -219 0 -122 -127 -251 -265 -270
-37 -5 -55 -2 -99 21 -103 51 -159 126 -159 213 0 90 55 207 117 247 79 52
189 55 275 8z m357 -2 c60 -31 125 -80 117 -88 -8 -8 -194 57 -206 72 -15 18
-6 45 15 45 9 0 42 -13 74 -29z m771 -74 c0 -46 3 -159 7 -250 5 -150 4 -167
-10 -167 -10 0 -18 11 -21 33 -7 41 -26 345 -26 415 0 49 2 52 25 52 25 0 25
-1 25 -83z m150 -168 c0 -224 -1 -240 -17 -237 -24 4 -31 70 -32 301 l-1 177
25 0 25 0 0 -241z m-290 16 c7 -113 11 -208 7 -211 -3 -3 -12 5 -20 18 -10 15
-19 73 -26 168 -7 80 -14 164 -17 188 -6 40 -5 42 18 42 l25 0 13 -205z m430
-5 c0 -172 -2 -201 -15 -207 -9 -3 -19 -2 -23 2 -4 3 -8 96 -10 206 l-4 199
26 0 26 0 0 -200z m2498 106 c-21 -222 -171 -635 -356 -981 -121 -227 -109
-214 -142 -160 l-21 34 41 61 c46 68 95 191 141 354 35 127 32 122 105 223
100 140 178 323 214 506 17 84 27 62 18 -37z m-525 44 c58 -39 122 -65 177
-74 25 -4 52 -11 60 -16 13 -9 12 -13 -5 -26 -29 -23 -127 -14 -189 16 -48 24
-106 88 -106 117 0 20 14 16 63 -17z m-2558 -12 c3 -13 9 -59 14 -103 9 -81 2
-110 -21 -87 -12 12 -40 179 -33 200 7 20 34 14 40 -10z m717 10 c13 -11 14
-25 7 -83 -4 -38 -8 -98 -8 -132 -1 -61 -15 -89 -32 -62 -10 16 -12 211 -3
258 7 34 13 37 36 19z m-2002 -13 c0 -2 -6 -22 -14 -42 -37 -97 -42 -284 -11
-406 23 -89 19 -98 -20 -53 -52 59 -70 122 -69 246 0 126 15 183 59 227 29 29
55 42 55 28z m1154 -41 c8 -20 8 -64 0 -64 -14 0 -42 21 -48 36 -7 19 10 44
29 44 7 0 16 -7 19 -16z m-310 -14 c100 -25 176 -62 311 -151 122 -80 304
-254 410 -392 100 -131 255 -359 249 -368 -2 -5 -28 1 -57 12 -33 14 -76 22
-119 22 -59 1 -69 4 -74 22 -20 64 -168 283 -272 403 -127 146 -351 295 -516
343 -116 33 -116 34 -116 77 0 21 3 42 7 45 13 13 101 7 177 -13z m3375 -111
c-58 -150 -136 -265 -265 -389 -137 -132 -314 -243 -482 -304 -107 -38 -292
-75 -292 -59 1 16 46 86 60 93 8 4 53 26 100 48 143 68 267 185 329 311 40 81
78 186 96 266 9 39 18 76 20 83 3 9 21 2 57 -23 74 -48 148 -62 221 -41 51 15
132 68 167 111 28 34 23 -8 -11 -96z m-4406 29 c-13 -52 -7 -197 12 -268 21
-83 71 -172 150 -270 l63 -77 -36 -19 c-20 -10 -40 -20 -43 -22 -4 -1 -60 67
-125 153 -132 175 -181 223 -271 268 -34 17 -60 34 -57 39 15 24 288 228 306
228 6 0 6 -12 1 -32z m1021 -98 c126 -43 349 -221 478 -382 95 -118 198 -283
198 -318 0 -18 -7 -30 -24 -38 -42 -19 -95 -72 -131 -132 -30 -50 -42 -61 -82
-74 -51 -18 -128 -22 -118 -7 3 6 -26 19 -65 31 -101 30 -290 113 -384 168
-160 94 -348 304 -411 459 l-24 58 49 6 c89 12 214 104 290 213 l33 49 67 -7
c36 -3 92 -15 124 -26z m1639 -149 c42 -63 158 -174 212 -202 144 -77 348 -74
509 8 l49 25 -38 -69 c-67 -121 -265 -410 -342 -498 l-41 -48 -30 59 c-16 32
-44 99 -61 149 -24 66 -40 96 -64 116 l-32 27 -35 -19 c-19 -10 -78 -38 -132
-63 -56 -26 -115 -61 -142 -86 l-46 -42 -9 24 c-12 31 5 112 57 278 22 69 54
182 73 253 18 70 36 127 40 127 3 0 18 -18 32 -39z m-2330 -50 c25 -24 67 -84
105 -154 97 -175 224 -318 378 -425 68 -47 244 -130 344 -162 124 -39 117 -49
-35 -49 -251 0 -311 17 -447 126 -145 115 -222 217 -321 424 -59 121 -87 206
-87 259 0 29 16 25 63 -19z m-848 -221 c25 -11 64 -28 88 -39 79 -35 206 -140
276 -229 36 -46 67 -88 69 -93 4 -10 -119 -208 -130 -209 -4 0 -9 8 -13 19 -9
29 -117 135 -186 182 -87 59 -189 100 -282 113 l-77 11 35 50 c129 180 156
215 165 215 5 0 30 -9 55 -20z m2602 -20 c62 -16 147 -34 190 -40 43 -6 93
-13 111 -16 20 -3 32 -10 29 -17 -5 -15 -96 -11 -191 9 -90 19 -242 70 -270
90 -19 15 -19 16 -1 9 11 -3 70 -19 132 -35z m759 -264 c3 -8 -7 -32 -21 -54
-24 -37 -29 -40 -50 -30 -32 14 -36 28 -19 66 11 28 18 32 49 32 21 0 38 -6
41 -14z m-928 -81 c74 -22 116 -64 163 -161 51 -104 55 -173 15 -259 -38 -84
-150 -266 -243 -396 -154 -217 -542 -611 -703 -717 l-64 -41 -33 59 c-19 33
-43 66 -55 74 -20 14 -20 15 16 75 21 33 67 96 104 139 148 173 308 370 341
417 45 67 128 237 147 303 9 28 18 52 20 52 3 0 22 -13 42 -29 72 -58 169 -64
274 -18 66 29 93 56 124 122 32 67 30 85 -13 163 -77 141 -104 162 -212 163
-80 1 -108 -13 -152 -75 -49 -66 -38 -166 23 -223 30 -28 89 -53 125 -53 59 0
133 78 133 140 0 72 -101 140 -145 97 -12 -13 -55 -91 -55 -102 0 -3 6 -5 14
-5 8 0 23 16 35 35 22 38 45 44 73 18 23 -20 24 -80 1 -105 -32 -36 -118 -14
-141 37 -19 41 -15 99 10 130 63 80 190 62 256 -35 48 -71 8 -182 -87 -238
-37 -22 -58 -27 -106 -26 -75 1 -108 18 -174 89 -51 56 -51 57 -51 123 1 129
62 219 167 248 64 17 90 17 151 -1z m829 -61 c149 -87 85 -327 -87 -328 -119
0 -204 119 -171 241 12 43 58 98 95 114 34 15 115 2 163 -27z m161 -1 c-3 -32
-32 -43 -42 -17 -7 19 10 44 31 44 10 0 13 -9 11 -27z m-473 -50 c-4 -10 -10
-54 -12 -98 -4 -72 -2 -85 21 -128 25 -47 26 -48 7 -68 -19 -20 -19 -20 -47
38 -37 74 -41 188 -9 241 20 34 53 46 40 15z m1443 -58 c36 -30 62 -82 62
-124 0 -41 -32 -104 -64 -124 -56 -37 -158 -9 -185 51 -17 36 -13 114 7 152
36 68 126 90 180 45z m-924 -37 c8 -22 6 -32 -9 -47 -25 -28 -35 -18 -35 35 0
38 3 45 17 42 10 -2 22 -15 27 -30z m-1530 -48 c81 0 107 -10 91 -36 -10 -16
-132 -63 -167 -64 -17 0 -118 90 -118 105 0 4 28 5 61 1 34 -3 94 -6 133 -6z
m-2163 -15 c107 -28 195 -81 287 -172 l83 -82 -24 -48 c-14 -26 -37 -83 -52
-125 -15 -43 -30 -78 -33 -78 -3 0 -20 17 -37 38 -50 57 -178 129 -260 147
-108 23 -224 19 -314 -10 -22 -7 -23 -5 -17 18 10 41 126 311 136 317 22 14
171 10 231 -5z m4791 -2 c26 -24 24 -55 -4 -51 -18 2 -24 11 -26 36 -4 36 3
40 30 15z m-2842 -69 c44 -26 84 -52 87 -57 3 -6 -2 -16 -12 -23 -15 -11 -22
-10 -44 7 -14 11 -63 44 -108 74 -44 30 -84 59 -87 64 -13 21 85 -18 164 -65z
m1788 -6 c21 -24 34 -52 46 -103 5 -22 -4 -13 -38 39 -25 38 -46 73 -46 77 0
16 16 10 38 -13z m37 -203 c62 -107 141 -269 149 -307 6 -26 4 -28 -27 -28
-37 0 -64 23 -92 80 -53 107 -132 226 -230 347 l-26 32 38 37 37 37 49 -54
c27 -30 73 -94 102 -144z m-1472 140 c14 -35 -68 -230 -146 -346 -39 -59 -176
-230 -333 -416 -55 -66 -116 -145 -135 -176 -30 -50 -37 -57 -66 -57 -17 0
-34 4 -37 8 -3 5 18 55 46 113 27 57 99 214 159 349 120 269 129 284 219 388
50 58 76 79 142 112 83 42 142 51 151 25z m2505 -4 c20 -10 47 -30 59 -43 12
-13 66 -113 119 -222 86 -178 95 -201 80 -211 -35 -26 -11 -65 39 -65 29 0 32
-4 49 -57 10 -32 47 -136 82 -231 35 -96 64 -180 64 -188 0 -11 -9 -14 -32
-12 -32 3 -36 8 -145 227 -124 246 -264 510 -355 669 -58 101 -59 102 -41 127
22 30 33 30 81 6z m-1209 -133 c91 -122 191 -322 199 -397 5 -51 6 -53 14 -28
9 25 13 27 66 27 100 0 97 5 187 -268 l81 -242 -66 0 -67 0 -12 43 c-7 23 -49
111 -93 195 -76 147 -117 206 -267 383 -31 36 -99 118 -151 182 -52 64 -99
116 -105 117 -5 0 -16 -4 -24 -9 -13 -8 -13 -12 0 -28 8 -10 89 -108 180 -218
91 -110 198 -248 238 -308 72 -107 181 -334 181 -376 0 -30 -29 -83 -42 -79
-12 4 -68 82 -213 293 -42 61 -103 148 -136 195 -88 125 -211 324 -257 415
-40 79 -70 170 -59 182 3 3 27 -2 53 -11 60 -20 96 -19 159 4 28 10 53 19 57
19 4 1 39 -41 77 -91z m1161 -128 c140 -236 337 -610 381 -722 17 -43 18 -56
8 -80 -6 -15 -15 -28 -19 -28 -5 0 -39 42 -78 93 -172 230 -307 407 -355 469
-39 50 -238 361 -255 397 -1 3 31 5 71 3 49 -2 85 1 108 11 32 14 35 14 53 -7
10 -11 49 -73 86 -136z m-4815 -314 c59 -15 134 -52 190 -94 l41 -29 -12 -132
c-6 -72 -14 -134 -17 -138 -4 -3 -13 -1 -20 5 -29 24 -146 60 -217 66 -145 13
-280 -27 -380 -111 -21 -18 -41 -33 -45 -33 -7 0 -3 62 16 240 17 163 15 158
62 181 87 45 139 58 237 58 52 0 118 -5 145 -13z m1698 -500 c18 -7 47 -30 65
-50 28 -32 32 -44 32 -95 0 -56 -2 -60 -45 -100 -40 -37 -50 -41 -95 -41 -57
0 -93 15 -130 55 -21 22 -25 37 -25 85 0 50 4 63 31 96 45 56 108 75 167 50z
m3675 -68 c29 -28 28 -51 -6 -89 -26 -29 -30 -31 -53 -19 -44 23 -59 42 -59
76 0 63 65 80 118 32z m-1189 1 c46 -43 48 -104 3 -139 -33 -27 -75 -25 -108
3 -22 20 -27 32 -27 70 0 60 22 87 73 87 23 0 44 -8 59 -21z m-4017 -155 c32
-9 63 -24 68 -34 5 -9 20 -63 35 -121 14 -57 28 -111 30 -119 4 -12 -10 -15
-83 -16 -112 -2 -195 -24 -295 -77 -87 -46 -164 -124 -199 -204 -10 -24 -21
-43 -23 -43 -7 0 -63 185 -86 282 l-23 96 42 55 c99 131 227 194 401 196 42 1
101 -6 133 -15z m5387 -141 c66 -71 116 -129 111 -131 -14 -5 -120 54 -164 90
-21 17 -56 53 -77 81 -38 47 -39 51 -23 68 9 11 20 19 25 19 4 0 61 -57 128
-127z m-1144 -2 c63 -63 115 -118 115 -124 0 -5 -15 -6 -35 -3 -27 5 -42 2
-64 -13 -33 -24 -53 -26 -81 -8 -14 8 -23 9 -28 2 -4 -5 -24 -18 -45 -27 -29
-14 -39 -15 -42 -5 -3 6 -18 59 -34 117 -16 58 -33 113 -36 123 -6 14 -2 17
22 17 32 0 60 -25 112 -102 18 -27 34 -48 37 -48 7 0 -24 68 -44 98 -34 50
-38 97 -6 90 7 -2 65 -54 129 -117z m-2363 73 c67 -20 157 -45 198 -55 127
-33 133 -37 80 -59 -58 -24 -109 -70 -135 -120 -14 -27 -29 -50 -34 -50 -15 0
-302 100 -372 130 -39 16 -82 38 -95 49 l-25 19 33 7 c50 11 119 49 152 84 17
17 40 31 52 31 12 0 78 -16 146 -36z m2093 -91 c28 -95 39 -127 51 -158 7 -17
6 -18 -8 -7 -17 13 -43 8 -70 -16 -15 -12 -18 -12 -22 -1 -7 21 -26 189 -26
232 0 33 3 37 25 37 22 0 27 -8 50 -87z m-1407 -69 c85 -17 90 -20 76 -34 -6
-6 -43 -1 -104 16 -52 14 -97 28 -99 30 -10 9 55 3 127 -12z m-328 -4 c12 -8
9 -10 -12 -10 -16 0 -28 5 -28 10 0 13 20 13 40 0z m225 -30 c61 -16 111 -29
113 -30 2 0 -9 -15 -23 -34 l-26 -34 -42 23 c-23 13 -78 37 -122 54 -112 43
-121 51 -60 50 28 0 100 -13 160 -29z m1997 -2 c-16 -16 -16 -78 1 -79 25 -3
42 3 50 18 11 19 37 -1 37 -29 0 -24 -18 -58 -31 -58 -14 0 -99 81 -99 95 0
14 38 65 48 65 3 0 1 -5 -6 -12z m-1606 -100 c89 -86 103 -112 57 -106 -21 2
-43 23 -95 92 -64 83 -83 116 -57 101 6 -4 48 -43 95 -87z m-560 52 c102 -24
161 -47 168 -66 8 -20 -22 -64 -43 -64 -9 0 -83 23 -166 50 -99 33 -149 54
-147 62 12 44 62 49 188 18z m2042 -15 c-3 -3 -13 -2 -22 1 -14 5 -15 9 -4 15
13 8 36 -6 26 -16z m-39 -41 c10 -27 17 -34 29 -28 53 22 58 19 80 -50 12 -37
22 -78 22 -91 0 -22 -4 -25 -34 -25 -32 0 -35 3 -85 105 -47 94 -55 125 -32
125 4 0 13 -16 20 -36z m-119 16 c0 -5 -7 -10 -15 -10 -8 0 -24 -9 -35 -20
l-20 -20 0 24 c0 24 13 32 53 35 9 0 17 -3 17 -9z m-170 -29 c0 -5 3 -17 7
-26 5 -14 2 -16 -18 -10 -36 11 -47 24 -29 35 19 12 40 13 40 1z m1190 -6 c0
-18 -48 -70 -57 -61 -7 6 38 76 50 76 4 0 7 -7 7 -15z m-981 -62 c6 -21 13
-57 17 -80 l7 -43 -40 0 c-42 0 -42 -1 -79 132 -4 13 3 18 28 21 18 2 38 5 45
5 7 1 17 -15 22 -35z m400 6 c6 -18 11 -45 11 -60 0 -26 -3 -29 -35 -29 -30 0
-35 4 -41 28 -3 15 -7 32 -9 39 -4 12 40 53 55 53 5 0 13 -14 19 -31z m-2057
-35 c66 -70 105 -152 79 -168 -12 -8 -161 161 -161 183 0 46 30 41 82 -15z
m1468 -13 c0 -78 -6 -91 -41 -91 -30 0 -33 8 -42 102 -3 35 -1 37 28 41 16 2
36 5 43 5 8 2 12 -16 12 -57z m1600 24 c-15 -39 -50 -105 -56 -105 -3 0 -3 3
-1 8 3 4 17 33 30 65 25 56 46 81 27 32z m-1020 -131 c0 -16 -37 -84 -46 -84
-2 0 -4 23 -4 50 0 47 2 50 25 50 16 0 25 -6 25 -16z m-192 -7 c8 -9 4 -32
-14 -82 -13 -39 -24 -71 -24 -72 0 -2 -4 -3 -9 -3 -5 0 -11 38 -13 85 l-3 85
26 0 c15 0 31 -6 37 -13z m-420 -46 c2 -25 1 -56 -3 -69 -6 -22 -8 -24 -21
-10 -17 17 -30 88 -20 113 3 9 14 15 23 13 13 -2 19 -15 21 -47z m-3672 -23
c20 -35 57 -91 81 -125 23 -34 43 -64 43 -66 0 -3 -23 -12 -50 -21 -76 -25
-188 -94 -244 -151 -84 -84 -166 -232 -166 -297 0 -21 0 -21 -21 -2 -25 22
-178 225 -204 270 -17 31 -17 31 22 115 51 107 117 187 202 244 79 52 104 62
191 80 106 21 104 22 146 -47z m3889 5 c-4 -27 -12 -61 -19 -78 -12 -28 -13
-29 -23 -10 -6 11 -14 46 -17 78 l-7 57 36 0 37 0 -7 -47z m-3477 -490 c23
-23 224 -153 236 -153 6 0 -12 -15 -40 -34 -59 -40 -131 -132 -180 -231 -42
-85 -61 -217 -43 -290 6 -25 10 -48 8 -50 -11 -10 -295 162 -369 224 l-34 28
28 74 c83 215 177 347 297 417 62 36 74 38 97 15z m2352 -188 c0 -3 -15 -28
-34 -55 -64 -93 -81 -151 -81 -280 0 -105 2 -120 27 -170 15 -30 38 -69 52
-86 l26 -30 -68 -17 c-37 -10 -100 -24 -140 -31 l-74 -14 -39 61 c-60 93 -102
232 -103 342 -1 105 10 196 27 219 21 28 407 86 407 61z m650 -47 c69 -17 141
-38 160 -46 l34 -14 -81 -33 c-132 -52 -164 -82 -247 -237 -49 -91 -76 -193
-76 -285 0 -43 -1 -45 -25 -39 -14 4 -52 19 -83 34 l-57 27 -9 76 c-14 119 13
280 64 384 22 44 56 102 75 128 36 48 37 48 78 42 23 -4 98 -20 167 -37z
m-2286 -99 c59 -10 119 -19 132 -19 13 0 24 -2 24 -4 0 -2 -16 -29 -35 -61
-47 -79 -60 -145 -59 -310 0 -139 5 -166 49 -269 8 -18 5 -19 -46 -12 -60 8
-283 51 -340 67 -43 11 -47 21 -56 135 -12 157 39 337 131 462 27 38 34 42 61
37 17 -4 79 -15 139 -26z m819 -51 c-23 -89 -18 -248 13 -353 29 -100 51 -148
88 -192 l26 -30 -63 -13 c-34 -7 -111 -18 -172 -25 -106 -12 -111 -12 -132 8
-29 26 -80 150 -99 236 -18 88 -17 177 4 286 l18 90 135 21 c74 12 148 22 165
23 l31 1 -14 -52z m1814 -28 c60 -26 142 -106 169 -165 13 -27 31 -82 40 -121
28 -128 -13 -248 -114 -331 -65 -53 -114 -66 -222 -61 -69 3 -98 10 -152 35
-139 65 -194 157 -186 312 3 64 10 88 42 151 70 138 93 159 207 190 84 23 149
20 216 -10z"/>
<path d="M8086 8324 c-4 -10 -1 -14 6 -12 15 5 23 28 10 28 -5 0 -13 -7 -16
-16z"/>
<path d="M7072 7678 c-29 -37 -23 -88 10 -88 36 0 58 19 58 50 0 40 -45 65
-68 38z"/>
<path d="M4932 7458 c-28 -28 -2 -88 33 -74 21 8 29 31 21 61 -7 27 -34 33
-54 13z"/>
<path d="M4344 7426 c-3 -8 -4 -25 -2 -38 4 -33 52 -33 56 0 6 40 -41 73 -54
38z"/>
<path d="M4493 7308 c-34 -5 -72 -13 -85 -18 -16 -7 -10 -7 22 -2 25 4 110 7
189 7 79 0 131 3 115 6 -47 12 -174 15 -241 7z"/>
<path d="M4780 7290 c0 -5 5 -10 11 -10 5 0 7 5 4 10 -3 6 -8 10 -11 10 -2 0
-4 -4 -4 -10z"/>
<path d="M3792 7158 c-16 -16 -15 -29 4 -56 15 -22 17 -22 35 -6 23 21 24 38
3 58 -19 19 -26 20 -42 4z"/>
<path d="M4065 7084 c-22 -14 -71 -41 -108 -60 -37 -19 -121 -69 -185 -111
-64 -42 -137 -83 -162 -92 l-45 -16 32 -3 c24 -2 47 7 90 36 76 51 242 150
320 191 34 18 71 44 84 57 28 30 24 30 -26 -2z"/>
<path d="M3340 6858 c-54 -10 -80 -22 -80 -39 0 -5 10 -5 23 0 12 4 57 14 99
21 42 8 75 17 72 22 -6 10 -42 9 -114 -4z"/>
<path d="M5860 7244 c-75 -16 -190 -48 -228 -64 -64 -28 -246 -179 -284 -234
-13 -19 -2 -12 28 20 88 91 152 131 280 176 103 36 133 42 224 46 121 5 195
-7 283 -44 91 -39 161 -63 166 -58 9 9 -37 60 -70 76 -98 49 -206 80 -289 83
-47 2 -96 1 -110 -1z"/>
<path d="M4978 6109 c-23 -13 -23 -32 0 -52 26 -24 49 -21 69 9 16 25 16 27
-3 37 -27 16 -46 17 -66 6z"/>
<path d="M4525 7086 c-52 -23 -78 -60 -83 -119 -4 -49 -2 -55 17 -60 19 -5 20
-3 9 10 -10 12 -9 17 5 28 9 7 17 17 17 23 0 6 12 24 26 41 44 53 104 36 104
-28 0 -12 5 -21 10 -21 6 0 10 -9 10 -20 0 -24 6 -25 26 -6 15 15 16 66 1 66
-4 0 -5 4 -2 10 10 15 -14 49 -48 70 -37 23 -51 24 -92 6z"/>
<path d="M5795 6906 c-101 -33 -145 -58 -197 -113 -74 -80 -103 -159 -103
-278 1 -178 127 -338 310 -394 54 -17 74 -18 125 -10 206 33 335 147 370 327
37 188 -50 368 -216 447 -56 27 -135 45 -188 45 -17 -1 -62 -11 -101 -24z
m276 -93 c23 -13 23 -13 -11 -8 -19 3 -57 7 -83 9 -74 6 -70 17 5 15 36 -1 76
-8 89 -16z m-267 -22 c3 -5 -4 -11 -17 -15 -12 -3 -44 -19 -70 -37 -51 -34
-66 -34 -45 0 14 22 44 37 67 32 7 -1 10 2 7 8 -4 5 4 12 16 14 13 2 26 5 30
6 4 0 9 -3 12 -8z m211 -30 c104 -50 154 -127 155 -237 0 -172 -110 -294 -265
-294 -114 0 -220 73 -250 172 -43 139 -30 215 50 295 98 97 198 118 310 64z
m-415 -198 c-1 -15 -30 -46 -37 -40 -3 4 2 16 12 27 19 21 25 24 25 13z"/>
<path d="M5800 6698 c-53 -27 -105 -92 -114 -143 -10 -51 11 -140 41 -176 14
-16 49 -43 77 -59 163 -94 349 49 307 235 -13 58 -63 125 -112 150 -44 23
-146 19 -199 -7z m169 -74 c27 -19 60 -88 61 -124 0 -64 -68 -130 -137 -130
-55 0 -123 74 -123 135 0 41 30 95 64 116 38 23 104 25 135 3z"/>
<path d="M5880 6593 c-38 -14 -60 -47 -60 -88 0 -50 23 -75 67 -75 42 0 93 48
93 87 0 45 -59 90 -100 76z m70 -38 c28 -34 5 -96 -42 -111 -26 -8 -68 31 -68
63 0 50 79 85 110 48z"/>
<path d="M3188 6600 c-46 -14 -83 -47 -112 -100 -55 -101 -19 -223 84 -278
109 -58 267 18 299 144 12 48 8 80 -20 135 -43 87 -151 129 -251 99z m155 -88
c36 -34 57 -73 57 -107 0 -59 -63 -129 -125 -141 -71 -13 -155 60 -155 135 0
57 38 124 80 138 50 18 109 7 143 -25z"/>
<path d="M3201 6471 c-23 -21 -31 -38 -31 -63 0 -32 21 -74 44 -90 32 -22 116
4 136 43 16 29 3 75 -32 109 -39 39 -76 39 -117 1z m83 -37 c11 -30 6 -53 -15
-64 -41 -23 -64 13 -39 61 13 23 46 25 54 3z"/>
<path d="M6840 6181 c-15 -29 -12 -49 10 -61 15 -8 24 -6 40 10 24 24 25 34 4
54 -21 21 -41 20 -54 -3z"/>
<path d="M3645 6151 c-73 -18 -127 -75 -151 -158 -34 -115 13 -239 108 -289
32 -16 115 -18 154 -4 50 19 106 73 130 124 40 85 26 204 -29 265 -43 47 -149
78 -212 62z m146 -87 c44 -42 59 -76 59 -134 0 -88 -49 -157 -127 -180 -37
-11 -46 -10 -87 10 -25 12 -54 34 -65 48 -60 85 -38 217 45 273 45 31 134 22
175 -17z"/>
<path d="M3680 6016 c0 -8 -10 -22 -22 -30 -27 -19 -39 -11 -12 8 21 16 14 32
-11 22 -38 -14 -46 -136 -12 -174 24 -26 112 -20 144 10 43 40 40 112 -8 157
-26 24 -79 29 -79 7z m75 -36 l20 -25 -22 19 c-13 11 -23 24 -23 29 0 6 1 8 3
6 1 -2 11 -15 22 -29z m-9 -29 c22 -26 22 -26 2 -53 -35 -50 -88 -29 -88 36 0
31 25 57 48 49 9 -3 27 -18 38 -32z m7 -92 c-11 -12 -29 -19 -39 -17 -16 3
-14 6 11 20 42 22 53 21 28 -3z"/>
<path d="M5366 5994 c-3 -9 -6 -27 -6 -41 0 -39 25 -22 28 20 3 37 -11 50 -22
21z"/>
<path d="M5601 5854 c-42 -35 -54 -59 -46 -95 7 -29 8 -30 63 -27 52 3 57 5
66 31 8 22 6 31 -8 45 -16 16 -18 16 -37 -7 -10 -13 -19 -32 -19 -43 0 -17 -3
-18 -15 -8 -20 17 -19 32 6 64 24 30 56 34 75 9 17 -22 18 -65 2 -81 -6 -6 -9
-14 -6 -18 4 -3 16 4 27 15 45 45 11 141 -49 141 -16 0 -42 -11 -59 -26z"/>
<path d="M5934 5816 c-10 -26 0 -51 21 -51 16 0 20 7 20 30 0 33 -30 49 -41
21z"/>
<path d="M4204 4614 c-9 -34 18 -64 44 -48 21 14 28 54 10 65 -25 16 -48 9
-54 -17z"/>
<path d="M5315 5395 c-19 -19 -36 -48 -40 -64 -8 -36 15 -93 51 -126 52 -48
150 -21 180 50 18 44 18 69 -1 109 -20 41 -63 66 -115 66 -36 0 -48 -6 -75
-35z m122 -33 c37 -24 19 -102 -28 -117 -26 -8 -69 29 -69 60 0 49 57 83 97
57z"/>
<path d="M6481 5294 c-14 -18 -21 -41 -21 -69 0 -94 79 -128 139 -60 41 47 41
82 -2 123 -42 41 -87 43 -116 6z m87 -36 c18 -18 15 -42 -7 -62 -27 -24 -41
-12 -41 35 0 31 4 39 18 39 10 0 23 -5 30 -12z"/>
<path d="M5678 4391 c-4 -25 5 -44 46 -100 28 -39 68 -94 88 -123 21 -29 49
-66 63 -83 l25 -30 -11 30 c-37 104 -165 322 -195 332 -7 2 -14 -10 -16 -26z"/>
<path d="M3526 3961 c-32 -33 -45 -96 -26 -130 16 -31 75 -54 116 -46 46 8 84
56 84 105 0 89 -113 135 -174 71z m107 -63 c14 -22 -7 -48 -39 -48 -20 0 -24
5 -24 28 0 16 3 32 7 36 12 11 45 2 56 -16z"/>
<path d="M7231 3942 c-23 -44 28 -92 64 -62 21 17 19 36 -7 60 -27 25 -44 25
-57 2z"/>
<path d="M6040 3921 c-22 -42 -5 -81 35 -81 28 0 45 19 45 50 0 14 -5 31 -12
38 -18 18 -56 14 -68 -7z"/>
<path d="M3750 3610 c0 -5 7 -10 16 -10 8 0 12 5 9 10 -3 6 -10 10 -16 10 -5
0 -9 -4 -9 -10z"/>
<path d="M6019 2147 c-80 -23 -152 -89 -195 -181 -41 -88 -27 -168 43 -247 61
-67 135 -101 216 -100 115 1 198 46 237 126 19 40 22 58 18 128 -5 94 -34 162
-93 221 -51 51 -149 74 -226 53z m166 -99 c45 -39 72 -91 80 -154 8 -61 -14
-105 -74 -151 -34 -27 -52 -33 -89 -33 -90 1 -183 69 -198 145 -12 68 42 171
107 203 67 33 129 30 174 -10z"/>
<path d="M6033 2000 c-70 -43 -85 -108 -39 -175 48 -69 102 -84 154 -40 41 34
55 75 50 137 -4 40 -11 57 -32 75 -34 29 -89 30 -133 3z m102 -35 c36 -35 34
-87 -4 -114 -42 -30 -68 -27 -87 10 -18 37 -12 74 18 107 27 28 43 28 73 -3z"/>
<path d="M5050 8621 c-8 -5 -71 -12 -140 -15 -433 -24 -934 -176 -1279 -388
-36 -23 -93 -56 -125 -75 -116 -66 -323 -233 -483 -387 -211 -204 -281 -297
-243 -321 6 -4 88 72 183 168 246 250 452 415 704 565 133 80 177 102 324 162
299 123 604 196 908 219 127 9 135 9 161 -11 35 -26 61 -20 73 15 19 58 -30
98 -83 68z"/>
<path d="M5220 8580 c0 -30 1 -30 53 -30 251 0 628 -85 931 -211 66 -27 142
-58 167 -69 85 -35 95 12 10 54 -172 88 -512 200 -727 241 -93 17 -331 45
-391 45 -41 0 -43 -1 -43 -30z"/>
<path d="M8445 7870 c-71 -4 -131 -8 -133 -9 -2 0 0 -5 3 -11 4 -6 90 -10 226
-10 205 0 220 1 217 18 -3 15 -16 17 -93 18 -50 0 -148 -2 -220 -6z m262 -16
c-3 -3 -12 -4 -19 -1 -8 3 -5 6 6 6 11 1 17 -2 13 -5z"/>
<path d="M2575 7536 c23 -15 65 -30 65 -22 0 8 -56 36 -72 36 -7 0 -4 -6 7
-14z"/>
<path d="M2473 7503 c9 -2 25 -2 35 0 9 3 1 5 -18 5 -19 0 -27 -2 -17 -5z"/>
<path d="M2538 7503 c7 -3 16 -2 19 1 4 3 -2 6 -13 5 -11 0 -14 -3 -6 -6z"/>
<path d="M2365 7260 c10 -11 22 -17 26 -14 13 8 11 14 -3 12 -7 -2 -12 3 -10
10 1 6 -5 12 -15 12 -14 0 -14 -2 2 -20z"/>
<path d="M2513 7058 c-11 -13 -37 -36 -57 -51 -41 -31 -54 -67 -37 -103 15
-34 45 -30 77 11 21 28 25 43 22 77 -3 27 1 51 10 66 8 12 12 22 10 22 -2 0
-14 -10 -25 -22z"/>
<path d="M7735 6987 c-22 -17 -15 -54 18 -93 20 -23 26 -25 45 -15 27 14 27
24 2 79 -20 44 -34 51 -65 29z"/>
<path d="M2306 6739 c-30 -23 -33 -45 -10 -77 21 -30 58 -28 83 4 26 33 26 49
1 74 -25 25 -41 25 -74 -1z"/>
<path d="M7855 6738 c-11 -6 -21 -12 -23 -14 -2 -1 14 -46 36 -101 114 -284
212 -746 212 -995 l0 -78 30 0 30 0 0 98 c-1 252 -75 621 -190 945 -49 137
-65 162 -95 145z"/>
<path d="M2262 6547 c-15 -18 -82 -252 -82 -287 0 -15 6 -33 14 -39 12 -10 18
-7 30 18 17 32 86 278 86 305 0 19 -33 21 -48 3z"/>
<path d="M8558 6473 c-27 -7 -32 -59 -24 -272 6 -175 5 -198 -10 -227 -20 -37
-10 -75 25 -94 17 -8 25 -6 42 11 17 17 20 28 14 57 -4 21 -9 145 -12 277 -2
132 -7 242 -11 246 -4 3 -15 4 -24 2z"/>
<path d="M8080 5487 c-13 -7 -35 -28 -48 -47 -64 -95 45 -218 132 -149 62 49
70 122 18 172 -34 32 -70 41 -102 24z"/>
<path d="M8571 5430 c-35 -8 -123 -94 -193 -187 -17 -24 -37 -43 -43 -43 -7 0
-19 -7 -26 -17 -12 -14 -12 -17 0 -21 20 -7 52 -42 123 -135 l60 -78 114 3
114 3 38 40 c21 22 62 71 91 108 l52 68 -43 47 c-24 26 -74 86 -113 134 -76
96 -84 99 -174 78z m125 -72 c28 -29 63 -71 79 -93 16 -22 40 -52 53 -66 l24
-27 -37 -53 c-21 -30 -55 -73 -77 -95 -39 -40 -42 -42 -125 -48 -66 -6 -90 -4
-106 7 -37 24 -140 183 -130 200 4 8 43 56 85 106 66 77 85 93 125 105 27 8
51 15 54 15 3 1 28 -23 55 -51z"/>
<path d="M8057 5150 c-32 -26 -43 -77 -26 -123 10 -29 9 -48 -11 -133 -55
-244 -200 -623 -312 -816 l-33 -57 26 -27 27 -26 68 128 c130 245 241 550 317
875 4 14 18 31 32 37 50 23 54 88 9 137 -28 30 -62 32 -97 5z"/>
<path d="M2602 4923 c2 -27 8 -39 21 -41 14 -3 17 4 17 37 0 35 -3 41 -21 41
-17 0 -20 -5 -17 -37z"/>
<path d="M3308 4910 c19 -4 39 -13 45 -19 6 -6 20 -11 30 -11 42 0 92 -99 77
-152 -8 -26 -7 -28 6 -17 8 6 18 8 22 4 4 -4 1 -10 -6 -12 -6 -3 -10 -9 -6
-14 3 -5 -8 -21 -23 -35 -15 -15 -21 -25 -13 -22 8 2 25 19 38 38 42 62 26
143 -38 198 -30 26 -96 52 -130 51 l-35 -1 33 -8z"/>
<path d="M3217 4870 c-47 -41 -78 -150 -42 -150 8 0 15 -7 15 -16 0 -8 -4 -12
-10 -9 -12 8 -13 3 0 -29 5 -14 17 -26 26 -26 13 0 15 6 9 33 -16 71 -21 117
-13 117 4 0 8 5 8 11 0 5 -4 7 -10 4 -5 -3 -10 -1 -10 4 0 6 5 11 11 11 6 0 9
7 6 15 -4 9 6 24 26 40 18 13 29 25 25 25 -4 0 -22 -13 -41 -30z"/>
<path d="M2538 4873 c6 -2 10 -8 8 -12 -3 -4 -1 -13 5 -21 6 -11 9 -8 9 13 0
19 -5 27 -17 26 -11 0 -13 -3 -5 -6z"/>
<path d="M2590 4861 c-5 -11 -10 -39 -11 -63 0 -35 -2 -39 -10 -23 -8 17 -9
16 -3 -5 3 -14 8 -35 11 -47 5 -23 23 -32 23 -13 0 6 9 10 20 10 23 0 26 19 8
39 -11 11 -10 14 0 18 6 3 10 9 7 13 -3 5 -12 7 -20 3 -9 -3 -15 1 -15 11 0 9
8 16 19 16 18 0 19 2 5 30 -18 35 -20 36 -34 11z"/>
<path d="M3314 4766 c-10 -26 1 -51 24 -54 30 -4 39 23 17 48 -21 24 -34 25
-41 6z"/>
<path d="M2625 4629 c-4 -6 -5 -12 -2 -15 2 -3 7 2 10 11 7 17 1 20 -8 4z"/>
<path d="M3380 4620 c0 -5 6 -10 13 -10 6 -1 -1 -7 -18 -15 -16 -7 -24 -14
-17 -14 7 -1 26 6 42 14 31 16 41 29 15 19 -8 -4 -15 -1 -15 5 0 6 -4 11 -10
11 -5 0 -10 -4 -10 -10z"/>
<path d="M2330 4485 c-7 -9 -10 -25 -5 -42 14 -58 179 -366 222 -415 17 -19
43 -14 43 8 0 8 -39 92 -88 187 -48 94 -97 196 -109 225 -22 53 -40 64 -63 37z"/>
<path d="M2609 3949 c-24 -24 -18 -56 14 -79 54 -38 83 -69 122 -130 89 -139
330 -392 505 -532 253 -202 603 -405 860 -501 113 -42 313 -101 390 -116 118
-22 156 -23 169 -7 20 24 7 33 -66 46 -479 86 -982 340 -1408 711 -201 175
-446 453 -480 545 -32 85 -64 105 -106 63z"/>
<path d="M7585 3909 c-11 -17 4 -59 21 -59 20 0 28 24 14 49 -12 23 -25 27
-35 10z"/>
<path d="M3058 3873 c7 -3 16 -2 19 1 4 3 -2 6 -13 5 -11 0 -14 -3 -6 -6z"/>
<path d="M3098 3833 c7 -3 16 -2 19 1 4 3 -2 6 -13 5 -11 0 -14 -3 -6 -6z"/>
<path d="M6809 3752 c-9 -9 -37 -34 -63 -55 -45 -38 -57 -57 -35 -57 5 0 8 4
5 9 -9 14 25 36 50 33 16 -2 24 3 29 20 4 13 17 33 28 46 23 25 10 29 -14 4z"/>
<path d="M6940 3235 c-20 -21 -22 -28 -12 -50 14 -30 42 -32 68 -4 17 18 17
23 4 46 -20 36 -32 38 -60 8z"/>
<path d="M5435 3100 c-3 -5 1 -10 9 -10 8 0 18 5 21 10 3 6 -1 10 -9 10 -8 0
-18 -4 -21 -10z"/>
<path d="M5378 3083 c7 -3 16 -2 19 1 4 3 -2 6 -13 5 -11 0 -14 -3 -6 -6z"/>
<path d="M5830 2960 c-11 -8 -7 -9 15 -4 37 8 45 14 19 14 -10 0 -26 -5 -34
-10z"/>
<path d="M6521 2924 c-35 -19 -76 -34 -91 -34 -15 0 -73 -22 -129 -50 -56 -27
-159 -70 -228 -96 -181 -65 -233 -94 -233 -131 0 -12 7 -14 36 -8 66 12 405
154 553 231 157 82 181 98 166 113 -6 6 -34 -4 -74 -25z"/>
<path d="M5755 2943 c-11 -3 -24 -9 -29 -14 -5 -4 8 -3 30 2 58 16 57 26 -1
12z"/>
<path d="M5618 2903 c6 -2 18 -2 25 0 6 3 1 5 -13 5 -14 0 -19 -2 -12 -5z"/>
<path d="M5300 2871 c0 -6 -17 -12 -37 -14 l-38 -4 36 -1 c22 -1 42 4 49 13 9
10 9 15 1 15 -6 0 -11 -4 -11 -9z"/>
<path d="M5331 2861 c-8 -5 5 -7 35 -4 27 3 51 7 53 9 9 8 -75 3 -88 -5z"/>
<path d="M7118 2419 c29 -30 31 -36 29 -96 -2 -59 -5 -67 -35 -94 -24 -21 -43
-29 -70 -29 -21 0 -42 3 -48 8 -5 4 -1 -1 9 -10 29 -27 70 -22 108 12 36 31
55 37 61 19 2 -6 5 18 6 54 2 37 -2 68 -8 72 -5 3 -10 11 -10 16 0 6 5 7 10 4
24 -15 7 26 -21 49 -45 38 -69 34 -31 -5z"/>
<path d="M6943 2418 c-30 -33 -55 -87 -49 -105 5 -12 8 -12 27 1 12 8 30 29
40 46 20 32 81 65 105 56 8 -3 14 -1 14 4 0 12 -77 13 -84 1 -3 -5 -17 -11
-31 -13 -25 -5 -25 -5 -9 13 9 11 15 19 12 19 -2 0 -14 -10 -25 -22z"/>
<path d="M6900 2260 c0 -21 39 -78 58 -84 16 -6 16 -5 0 8 -10 7 -18 19 -18
26 0 6 -9 23 -20 37 -11 14 -20 20 -20 13z"/>
</g>
</svg>
